<?xml version="1.0" encoding="UTF-8" standalone="no"?>
<!-- Created with Inkscape (http://www.inkscape.org/) -->

<svg
   xmlns:dc="http://purl.org/dc/elements/1.1/"
   xmlns:cc="http://creativecommons.org/ns#"
   xmlns:rdf="http://www.w3.org/1999/02/22-rdf-syntax-ns#"
   xmlns:svg="http://www.w3.org/2000/svg"
   xmlns="http://www.w3.org/2000/svg"
   xmlns:sodipodi="http://sodipodi.sourceforge.net/DTD/sodipodi-0.dtd"
   xmlns:inkscape="http://www.inkscape.org/namespaces/inkscape"
   width="1107.0592mm"
   height="214.28519mm"
   viewBox="0 0 774.94142 149.99962"
   version="1.1"
   id="svg8"
   inkscape:version="0.92.1 r15371"
   sodipodi:docname="Tera Bot - long.svg"
   inkscape:export-filename="C:\Users\iamte\Pictures\New folder\teralab.png"
   inkscape:export-xdpi="96"
   inkscape:export-ydpi="96">
  <defs
     id="defs2" />
  <sodipodi:namedview
     id="base"
     pagecolor="#ffffff"
     bordercolor="#666666"
     borderopacity="1.0"
     inkscape:pageopacity="0.0"
     inkscape:pageshadow="2"
     inkscape:zoom="0.175"
     inkscape:cx="1830.3134"
     inkscape:cy="95.769911"
     inkscape:document-units="mm"
     inkscape:current-layer="layer1"
     showgrid="false"
     inkscape:window-width="1366"
     inkscape:window-height="705"
     inkscape:window-x="-8"
     inkscape:window-y="-8"
     inkscape:window-maximized="1"
     scale-x="0.7"
     fit-margin-top="0"
     fit-margin-left="0"
     fit-margin-right="0"
     fit-margin-bottom="0" />
  <metadata
     id="metadata5">
    <rdf:RDF>
      <cc:Work
         rdf:about="">
        <dc:format>image/svg+xml</dc:format>
        <dc:type
           rdf:resource="http://purl.org/dc/dcmitype/StillImage" />
        <dc:title></dc:title>
      </cc:Work>
    </rdf:RDF>
  </metadata>
  <g
     inkscape:label="Layer 1"
     inkscape:groupmode="layer"
     id="layer1"
     transform="translate(331.55927,145.61818)">
    <g
       id="g873">
      <g
         transform="translate(-301.62498,-188.38332)"
         id="g40"
         style="fill:#000000;fill-opacity:1">
        <path
           style="fill:#000000;fill-opacity:1;stroke-width:1.06511021;stroke-miterlimit:4;stroke-dasharray:none"
           d="M 45.065777,42.765143 A 75,75 0 0 0 -29.934293,117.7647 75,75 0 0 0 45.065777,192.76477 75,75 0 0 0 120.06586,117.7647 75,75 0 0 0 45.065777,42.765143 Z m 0,9.999908 a 64.999999,64.999999 0 0 1 6.48901,0.324527 64.999999,64.999999 0 0 1 6.42442,0.971 64.999999,64.999999 0 0 1 6.29522,1.607653 64.999999,64.999999 0 0 1 6.1035,2.227771 64.999999,64.999999 0 0 1 5.85029,2.826184 64.999999,64.999999 0 0 1 5.5392,3.395659 64.999999,64.999999 0 0 1 5.17229,3.932061 64.999999,64.999999 0 0 1 4.75423,4.429185 64.999999,64.999999 0 0 1 4.28811,4.881356 64.999999,64.999999 0 0 1 3.77962,5.284949 64.999999,64.999999 0 0 1 3.232883,5.635832 64.999999,64.999999 0 0 1 2.65358,5.930386 64.999999,64.999999 0 0 1 2.04897,6.166036 64.999999,64.999999 0 0 1 1.42317,6.33915 64.999999,64.999999 0 0 1 0.7829,6.45025 64.999999,64.999999 0 0 1 0.16278,4.59765 64.999999,64.999999 0 0 1 -0.32505,6.48952 64.999999,64.999999 0 0 1 -0.971,6.42442 64.999999,64.999999 0 0 1 -1.60713,6.29522 64.999999,64.999999 0 0 1 -2.22777,6.10299 64.999999,64.999999 0 0 1 -2.82619,5.8508 64.999999,64.999999 0 0 1 -3.396173,5.5392 64.999999,64.999999 0 0 1 -3.93206,5.17229 64.999999,64.999999 0 0 1 -4.42867,4.75372 64.999999,64.999999 0 0 1 -4.88136,4.28811 64.999999,64.999999 0 0 1 -5.28495,3.77961 64.999999,64.999999 0 0 1 -5.63583,3.23288 64.999999,64.999999 0 0 1 -5.9309,2.6541 64.999999,64.999999 0 0 1 -6.16552,2.04846 64.999999,64.999999 0 0 1 -6.33966,1.42317 64.999999,64.999999 0 0 1 -6.44974,0.78289 64.999999,64.999999 0 0 1 -4.59817,0.16279 64.999999,64.999999 0 0 1 -6.48901,-0.32453 64.999999,64.999999 0 0 1 -6.42441,-0.971 64.999999,64.999999 0 0 1 -6.29522,-1.60766 64.999999,64.999999 0 0 1 -6.10351,-2.22777 64.999999,64.999999 0 0 1 -5.85029,-2.82618 64.999999,64.999999 0 0 1 -5.5391899,-3.39618 64.999999,64.999999 0 0 1 -5.1723,-3.93206 64.999999,64.999999 0 0 1 -4.75423,-4.42867 64.999999,64.999999 0 0 1 -4.28811,-4.88135 64.999999,64.999999 0 0 1 -3.7791,-5.28495 64.999999,64.999999 0 0 1 -3.2328701,-5.63583 64.999999,64.999999 0 0 1 -2.65411,-5.93039 64.999999,64.999999 0 0 1 -2.04897,-6.16603 64.999999,64.999999 0 0 1 -1.42265,-6.33967 64.999999,64.999999 0 0 1 -0.78341,-6.44973 64.999999,64.999999 0 0 1 -0.16278,-4.59817 64.999999,64.999999 0 0 1 0.32504,-6.48901 64.999999,64.999999 0 0 1 0.971,-6.42442 64.999999,64.999999 0 0 1 1.60714,-6.295219 64.999999,64.999999 0 0 1 2.22828,-6.103501 64.999999,64.999999 0 0 1 2.82567,-5.850289 64.999999,64.999999 0 0 1 3.3961801,-5.539197 64.999999,64.999999 0 0 1 3.93206,-5.172295 64.999999,64.999999 0 0 1 4.42866997,-4.754232 64.999999,64.999999 0 0 1 4.88135003,-4.28811 64.999999,64.999999 0 0 1 5.28495,-3.779096 64.999999,64.999999 0 0 1 5.6363499,-3.232878 64.999999,64.999999 0 0 1 5.93039,-2.654101 64.999999,64.999999 0 0 1 6.16551,-2.048971 64.999999,64.999999 0 0 1 6.33967,-1.422654 64.999999,64.999999 0 0 1 6.45025,-0.782896 64.999999,64.999999 0 0 1 4.59765,-0.16278 z"
           id="path16"
           inkscape:connector-curvature="0" />
        <path
           style="fill:#000000;fill-opacity:1;stroke-width:1.3818711;stroke-miterlimit:4;stroke-dasharray:none"
           d="m 2.883864,74.333763 -6.87607,14.34693 h 40.77322 a 41.86695,64.835857 0 0 1 -3.71811,15.628507 h -22.1971 l -4.51549,7.75043 h 23.62027 a 41.86695,64.835857 0 0 1 -28.65097,26.50433 l -4.98884,9.91514 a 56.260148,74.167315 0 0 0 42.85475,-26.85571 v 39.57276 h 11.76001 v -39.6017 a 56.260148,74.167315 0 0 0 42.85525,26.88465 l -4.98883,-9.91514 A 41.86695,64.835857 0 0 1 60.400244,112.5459 46.654059,24.987782 0 0 0 94.123773,88.680693 l -6.87607,-14.34693 h -34.98546 -1.31671 -11.76001 -1.3162 z m 50.46669,14.34693 h 27.73991 a 44.769918,24.987783 0 0 1 -24.18406,15.108127 41.86695,64.835857 0 0 1 -3.55585,-15.108127 z"
           id="path4559-2"
           inkscape:connector-curvature="0"
           inkscape:export-xdpi="96"
           inkscape:export-ydpi="96" />
      </g>
      <text
         id="text44"
         y="-26.665333"
         x="-142.48558"
         style="font-style:normal;font-variant:normal;font-weight:normal;font-stretch:normal;font-size:24.5622673px;line-height:1.25;font-family:sans-serif;-inkscape-font-specification:sans-serif;letter-spacing:0px;word-spacing:0px;fill:#000000;fill-opacity:1;stroke:none;stroke-width:0.61405623"
         xml:space="preserve"><tspan
           style="font-style:normal;font-variant:normal;font-weight:normal;font-stretch:normal;font-size:117.89889526px;font-family:sans-serif;-inkscape-font-specification:sans-serif;fill:#000000;fill-opacity:1;stroke-width:0.61405623"
           y="-26.665333"
           x="-142.48558"
           id="tspan42"
           sodipodi:role="line">TERA BOT</tspan></text>
    </g>
  </g>
</svg>
